# xmcd CD database file
#
# Track frame offsets:
#	150
#	15433
#	31624
#	47692
#	62343
#	77385
#	91019
#	105120
#	123723
#	143672
#	159356
#	172808
#	187360
#	200153
#	217215
#	231805
#	248071
#	264993
#	280453
#
# Disc length: 3916 seconds
#
# Revision: 0
# Processed by: cddbd v1.5.2PL0 Copyright (c) Steve Scherf et al.
# Submitted via: CDex 1.50Beta7
#
DISCID=f50f4a13
DTITLE=leandro victor e juliano - acústico ao vivo
DYEAR=2010
DGENRE=Country
TTITLE0=locutor
TTITLE1=pode ser pra valer
TTITLE2=ve se volta pra mim
TTITLE3=sae o meu dinheiro desse
TTITLE4=botar pra quebrar
TTITLE5=fica ligado
TTITLE6=sonho ou ilisão
TTITLE7=amor sem fim
TTITLE8=faz mais uma vez comigo,mailicia de mulher,ta mfaltando amor
TTITLE9=começar de novo
TTITLE10=so buteco
TTITLE11=quando eu te conheci
TTITLE12=o filho do doutor
TTITLE13=duvidas
TTITLE14=o que a saudade faz, hoje eu topo o que vier
TTITLE15=a loira do carro branco
TTITLE16=24 horas de amor
TTITLE17=o campeão,morena bonita,pagode em brasilia
TTITLE18=amor exagerado
EXTD=YEAR: 2010
EXTT0=
EXTT1=
EXTT2=
EXTT3=
EXTT4=
EXTT5=
EXTT6=
EXTT7=
EXTT8=
EXTT9=
EXTT10=
EXTT11=
EXTT12=
EXTT13=
EXTT14=
EXTT15=
EXTT16=
EXTT17=
EXTT18=
PLAYORDER=
